<?xml version="1.0" encoding="UTF-8" standalone="no"?>
<svg
   xmlns:dc="http://purl.org/dc/elements/1.1/"
   xmlns:cc="http://creativecommons.org/ns#"
   xmlns:rdf="http://www.w3.org/1999/02/22-rdf-syntax-ns#"
   xmlns:svg="http://www.w3.org/2000/svg"
   xmlns="http://www.w3.org/2000/svg"
   id="svg8"
   version="1.1"
   viewBox="0 0 67.733332 67.733335"
   height="256"
   width="256">
  <defs
     id="defs2" />
  <metadata
     id="metadata5">
    <rdf:RDF>
      <cc:Work
         rdf:about="">
        <dc:format>image/svg+xml</dc:format>
        <dc:type
           rdf:resource="http://purl.org/dc/dcmitype/StillImage" />
        <dc:title></dc:title>
      </cc:Work>
    </rdf:RDF>
  </metadata>
  <g
     transform="translate(0,-229.26665)"
     id="layer1">
    <path
       id="rect815"
       transform="matrix(0.26458333,0,0,0.26458333,0,229.26665)"
       d="M 0 16 L 0 32 A 31.999973 15.99999 0 0 1 32 48 L 32 128 L 32 208 A 31.999973 15.99999 0 0 1 0 224 L 0 240 L 112 240 L 112 224 A 31.999973 15.99999 0 0 1 80 208 L 80 144 L 176 144 L 176 208 A 31.999973 15.99999 0 0 1 144 224 L 144 240 L 256 240 L 256 224 A 31.999973 15.99999 0 0 1 224 208 L 224 128 L 224 48 A 31.999973 15.99999 0 0 1 256 32 L 256 16 L 144 16 L 144 32 A 31.999973 15.99999 0 0 1 176 48 L 176 112 L 80 112 L 80 48 A 31.999973 15.99999 0 0 1 112 32 L 112 16 L 0 16 z "
       style="opacity:1;vector-effect:none;fill:#323232;fill-opacity:1;stroke:none;stroke-width:26.45669365;stroke-linecap:round;stroke-linejoin:round;stroke-miterlimit:4;stroke-dasharray:none;stroke-dashoffset:0;stroke-opacity:1;paint-order:normal" />
  </g>
</svg>
